$MeshFormat
2.2 0 8
$EndMeshFormat
$Nodes
279
1 23.5 -20 -26
2 23.5 20 -26
3 23.5 20 26
4 23.5 -20 26
5 -23.5 20 -26
6 -23.5 20 26
7 -23.5 -20 -26
8 -23.5 -20 26
9 23.5 -12.00000000000001 -26
10 23.5 -3.999999999999993 -26
11 23.5 3.999999999999979 -26
12 23.5 11.99999999999995 -26
13 23.5 20 -18.57142857142856
14 23.5 20 -11.1428571428571
15 23.5 20 -3.714285714285651
16 23.5 20 3.714285714285804
17 23.5 20 11.14285714285722
18 23.5 20 18.5714285714286
19 23.5 -12.00000000000001 26
20 23.5 -3.999999999999993 26
21 23.5 3.999999999999979 26
22 23.5 11.99999999999995 26
23 23.5 -20 -18.57142857142856
24 23.5 -20 -11.1428571428571
25 23.5 -20 -3.714285714285651
26 23.5 -20 3.714285714285804
27 23.5 -20 11.14285714285722
28 23.5 -20 18.5714285714286
29 15.66666666666667 20 -26
30 7.833333333333371 20 -26
31 2.842170943040401e-14 20 -26
32 -7.833333333333314 20 -26
33 -15.66666666666666 20 -26
34 -23.5 20 -18.57142857142856
35 -23.5 20 -11.1428571428571
36 -23.5 20 -3.714285714285651
37 -23.5 20 3.714285714285804
38 -23.5 20 11.14285714285722
39 -23.5 20 18.5714285714286
40 15.66666666666667 20 26
41 7.833333333333371 20 26
42 2.842170943040401e-14 20 26
43 -7.833333333333314 20 26
44 -15.66666666666666 20 26
45 -23.5 12.00000000000001 -26
46 -23.5 3.999999999999993 -26
47 -23.5 -3.999999999999979 -26
48 -23.5 -11.99999999999995 -26
49 -23.5 -20 -18.57142857142856
50 -23.5 -20 -11.1428571428571
51 -23.5 -20 -3.714285714285651
52 -23.5 -20 3.714285714285804
53 -23.5 -20 11.14285714285722
54 -23.5 -20 18.5714285714286
55 -23.5 12.00000000000001 26
56 -23.5 3.999999999999993 26
57 -23.5 -3.999999999999979 26
58 -23.5 -11.99999999999995 26
59 -15.66666666666667 -20 -26
60 -7.833333333333371 -20 -26
61 -2.842170943040401e-14 -20 -26
62 7.833333333333314 -20 -26
63 15.66666666666666 -20 -26
64 -15.66666666666667 -20 26
65 -7.833333333333371 -20 26
66 -2.842170943040401e-14 -20 26
67 7.833333333333314 -20 26
68 15.66666666666666 -20 26
69 23.5 13.00076619094958 -0.2044593522651681
70 23.5 -13.66574664902419 7.489456161726977
71 23.5 -13.72265751332233 -7.649760530441185
72 23.5 -0.1221653555311875 19.17167790218875
73 23.5 0.5627095440451093 -19.53319181523965
74 23.5 14.24549792930002 14.7027915914414
75 23.5 13.21469260975819 -14.19924002397102
76 23.5 -8.23090252678983 18.54116530221683
77 23.5 -3.530716074493359 12.03542157375188
78 23.5 3.409403210196594 12.16922527839734
79 23.5 -0.0117838415623126 5.609849782989301
80 23.5 7.239676871075055 5.8755673125954
81 23.5 3.589735381556004 -0.8068830900323327
82 23.5 -4.199017003682393 -0.3928475758861332
83 23.5 -0.4737754167074151 -7.25124179668094
84 23.5 8.462025930095869 -7.08250012603493
85 23.5 -7.577734860434207 -18.84390380396806
86 23.5 -12.37020503567637 -0.05681381633083049
87 23.5 4.73710824920548 -13.11078650522049
88 23.5 8.00105859010592 18.76959630154411
89 23.5 -13.66807369705056 -14.68150378077585
90 23.5 -7.243783286374704 -11.1448694245447
91 23.5 8.169014277033071 -19.91884843359676
92 23.5 -14.28319131765335 14.56710140531192
93 23.5 14.01529995749161 7.632942103023581
94 23.5 -7.145066363808661 5.795133438480903
95 23.5 14.93549694616073 -7.268668471882776
96 23.5 -7.601887651152643 -5.299106628776755
97 23.5 -1.840600598582466 -13.75961838321312
98 23.5 -14.65081046980298 20.64488612786329
99 23.5 -14.40957431198362 -20.57294816015818
100 23.5 14.49957525918972 -20.66987225714938
101 23.5 14.67801201668538 20.74073503048279
102 23.5 9.382187311633842 11.83002451740037
103 23.5 -9.371124586353877 11.6856555762977
104 16.50259420274613 20 -0.1741212447017304
105 -17.33569018767873 20 0.3642067396970603
106 3.9166666666667 20 -19.21613433702191
107 -3.824768659884931 20 19.29497061980914
108 11.91842137628661 20 18.68617145066322
109 -11.24557912986191 20 -18.77708651062327
110 -17.87707081946883 20 14.73470994918702
111 16.60407974771704 20 -14.39181461036754
112 3.919693656626833 20 19.17164276892687
113 -0.007358910964732956 20 12.56269267589347
114 -7.230409325790522 20 12.38892304162292
115 -3.487587987886286 20 6.078259355790387
116 3.917084183284018 20 6.008014783927202
117 0.3036288520677566 20 -0.4371492873632548
118 7.943700287873396 20 -0.4758803639285745
119 3.770731867150417 20 -7.120549364068555
120 -4.124197226348137 20 -7.044694626841505
121 11.46503660345831 20 -7.181486829494716
122 11.19630442386723 20 6.138276213570691
123 -10.80465387085454 20 4.855398955413364
124 7.325959180618213 20 12.35026748045251
125 -3.479926394466936 20 -19.51765245535808
126 -17.12486978257875 20 -7.335809823173207
127 -11.00225133584882 20 -3.348180482095682
128 -11.06110245913513 20 -10.83304587687885
129 -11.92334297127261 20 18.60116955716595
130 11.59084024186296 20 -19.89830248506465
131 -17.22047488755297 20 -14.59074225644856
132 18.03115197850107 20 14.67130345174976
133 0.3232163084710002 20 -13.32441369035743
134 7.945095239221072 20 -13.52211688606247
135 -17.93106040832161 20 7.428571428571509
136 18.3143421107843 20 -7.320913108341347
137 17.9115456293379 20 7.637413239461502
138 -5.956712285383478 20 0.1910489310434755
139 -17.88155173905876 20 -20.49120741226451
140 18.01902970634984 20 -20.63617616623489
141 -18.19191104203929 20 20.68912275855322
142 18.21954395834455 20 20.70837126701259
143 -5.747010391034195 20 -13.90089314733906
144 -13.01212228741419 20 11.15340712330772
145 13.20094332826137 20 11.79329225933785
146 -23.5 12.99189222924193 -0.2044215229364994
147 -23.5 -13.70431353860772 7.517822885479752
148 -23.5 -13.72902545738646 -7.643643422731301
149 -23.5 -0.1104586208939224 19.18268637920423
150 -23.5 0.537574057537249 -19.51913895055005
151 -23.5 14.2436895538627 14.70191451895251
152 -23.5 13.2046511782756 -14.19492824439685
153 -23.5 -8.228840757803614 18.5556817926222
154 -23.5 -3.532881157540778 12.04628337959242
155 -23.5 3.40516666965755 12.17318865585094
156 -23.5 -0.02688964043963438 5.618581538026064
157 -23.5 7.228072002558918 5.877395783590835
158 -23.5 3.559172724207166 -0.8033827909454487
159 -23.5 -4.215353060630136 -0.3862197997183827
160 -23.5 -0.4922136876197847 -7.246742199899231
161 -23.5 8.442475352680407 -7.077887448020366
162 -23.5 -7.603711823423751 -18.82388735113177
163 -23.5 -12.38009278333948 -0.04861075167433526
164 -23.5 4.698923104037014 -13.19453281926926
165 -23.5 8.001514585431337 18.77049756144686
166 -23.5 -14.29284970340368 14.57908991525704
167 -23.5 8.156787266506601 -19.92974537856092
168 -23.5 -13.69165360189147 -14.64066218755376
169 -23.5 -7.256939105831144 -11.14151112875357
170 -23.5 14.00974549062278 7.63243338789286
171 -23.5 -7.156537000115605 5.808792731574336
172 -23.5 14.92780375203959 -7.266876014499292
173 -23.5 -7.614724818961403 -5.293345460555365
174 -23.5 -1.860347720320163 -13.7653506453523
175 -23.5 -14.38830182492205 -20.55003932793806
176 -23.5 -14.66200481211519 20.65881137225178
177 -23.5 14.49957525918973 -20.66987225714937
178 -23.5 14.67787401871479 20.74073749858625
179 -23.5 9.377637660426657 11.8310859815468
180 -23.5 -9.383084431494282 11.70153414090515
181 -16.48219304344551 -20 0.2082009093365471
182 16.0622612960484 -20 0.104208586236485
183 -3.794665519045004 -20 -19.29122633270654
184 3.517497294129601 -20 19.63513604880886
185 -11.70756548833998 -20 19.98605016950481
186 11.41859450898924 -20 -19.43995787828035
187 17.06666842902992 -20 14.8571428571429
188 -17.91052468671083 -20 -14.74698800868907
189 3.889905123234072 -20 -19.30732866012541
190 0.06521252835121061 -20 -12.59037182215712
191 -7.26944572835313 -20 -12.39791648993047
192 -3.775208934503688 -20 -5.924349611898762
193 3.880319575451445 -20 -5.963459851926626
194 0.07368780899329508 -20 0.6149379439259448
195 -7.828969995001207 -20 0.5788843470740304
196 -3.689592794806039 -20 7.141613608936694
197 4.554506134670717 -20 7.394042044951199
198 -11.44726652199149 -20 7.242056076861232
199 -11.08328726674855 -20 -6.031804625718387
200 -3.882499241706125 -20 19.66081500629151
201 7.707121374477872 -20 -12.61736838308318
202 11.47874058736313 -20 -5.879556722059444
203 16.15967300877545 -20 -13.50511067565575
204 17.06666842902989 -20 7.428571428571495
205 11.1940697983962 -20 11.37538935377275
206 7.920866091018929 -20 0.2430775454063578
207 11.29482204014106 -20 19.27181972319917
208 -11.92386774247716 -20 -18.61419749684018
209 -16.80083355266859 -20 14.43375525192494
210 -0.2031365372943803 -20 13.48270791781138
211 -7.9551490228011 -20 13.65783300522176
212 -18.34605862362112 -20 7.348231019053145
213 -17.74507228277639 -20 -7.67659303465539
214 18.0460903222945 -20 -6.757498148192738
215 11.47568114358659 -20 5.18829327131062
216 17.70227590866068 -20 -20.30216334751781
217 -18.19438761918551 -20 -20.69096721913455
218 18.01902970634988 -20 20.63617616623494
219 -18.04540173016432 -20 20.66398512724441
220 5.700682139332802 -20 13.90846725793813
221 -13.12557354583265 -20 -11.70309294521058
222 -16.58065774746327 0.01910078160368404 26
223 18.0997304569265 -0.0002847931965645145 26
224 -3.48091554482241 13.55987855071322 26
225 -3.483212482363956 -13.55048079049526 26
226 11.75000000000002 13.21613433702192 26
227 11.74999999999999 -13.21613433702189 26
228 -16.91106953008924 7.938963982518601 26
229 -10.49644454321959 4.216595960556202 26
230 -10.57154102728133 -4.14632743611012 26
231 -2.838092778695286 0.04007014076747945 26
232 -17.00680581614606 -7.93373016615705 26
233 3.989291853640739 13.34482009528669 26
234 7.656762947012635 7.078618992549821 26
235 3.988909030717098 -13.33677153675773 26
236 7.656699143192007 -6.593859276286197 26
237 16.52743608889203 7.446867270831249 26
238 16.25028521998679 -7.2730098547111 26
239 -11.10675810745056 -12.50254781118321 26
240 -11.07398318393199 12.52054146968408 26
241 0.5456067264669846 -6.637260071680054 26
242 0.5481476017734015 7.213571493455953 26
243 10.76021400036766 0.176950541596497 26
244 4.054889606686233 0.2130153034005831 26
245 -17.61632319971247 -14.07396924416289 26
246 -17.57253013029535 14.10111868663052 26
247 17.79481076807993 14.24873832152269 26
248 17.79481076807989 -14.24873832152268 26
249 -5.569424226650082 -7.81332704135713 26
250 -5.556922539097394 7.827233107370019 26
251 16.58065774746327 -0.01910078160368374 -26
252 -18.0997304569265 0.0002847931965645145 -26
253 3.480915544822409 -13.55987855071322 -26
254 3.483212482363957 13.55048079049526 -26
255 -11.75000000000002 -13.21613433702192 -26
256 -11.74999999999999 13.21613433702189 -26
257 16.91106953008924 -7.938963982518601 -26
258 10.49644454321959 -4.216595960556202 -26
259 10.57154102728133 4.146327436110121 -26
260 2.838092778695287 -0.04007014076747922 -26
261 17.00680581614606 7.933730166157051 -26
262 -3.989291853640739 -13.34482009528668 -26
263 -7.656762947012635 -7.078618992549821 -26
264 -3.988909030717098 13.33677153675773 -26
265 -7.656699143192007 6.593859276286197 -26
266 -16.52743608889203 -7.446867270831249 -26
267 -16.25028521998679 7.2730098547111 -26
268 11.10675810745057 12.50254781118321 -26
269 11.07398318393199 -12.52054146968408 -26
270 -0.5456067264669846 6.637260071680054 -26
271 -0.5481476017734019 -7.213571493455953 -26
272 -10.76021400036766 -0.1769505415964968 -26
273 -4.054889606686232 -0.2130153034005833 -26
274 17.61632319971248 14.07396924416289 -26
275 17.57253013029535 -14.10111868663052 -26
276 -17.79481076807993 -14.24873832152269 -26
277 -17.79481076807989 14.24873832152268 -26
278 5.569424226650082 7.81332704135713 -26
279 5.556922539097393 -7.827233107370017 -26
$EndNodes
$Elements
634
1 15 2 0 1 1
2 15 2 0 2 2
3 15 2 0 3 3
4 15 2 0 4 4
5 15 2 0 5 5
6 15 2 0 6 6
7 15 2 0 7 7
8 15 2 0 8 8
9 1 2 0 1 1 9
10 1 2 0 1 9 10
11 1 2 0 1 10 11
12 1 2 0 1 11 12
13 1 2 0 1 12 2
14 1 2 0 2 2 13
15 1 2 0 2 13 14
16 1 2 0 2 14 15
17 1 2 0 2 15 16
18 1 2 0 2 16 17
19 1 2 0 2 17 18
20 1 2 0 2 18 3
21 1 2 0 3 4 19
22 1 2 0 3 19 20
23 1 2 0 3 20 21
24 1 2 0 3 21 22
25 1 2 0 3 22 3
26 1 2 0 4 1 23
27 1 2 0 4 23 24
28 1 2 0 4 24 25
29 1 2 0 4 25 26
30 1 2 0 4 26 27
31 1 2 0 4 27 28
32 1 2 0 4 28 4
33 1 2 0 5 2 29
34 1 2 0 5 29 30
35 1 2 0 5 30 31
36 1 2 0 5 31 32
37 1 2 0 5 32 33
38 1 2 0 5 33 5
39 1 2 0 6 5 34
40 1 2 0 6 34 35
41 1 2 0 6 35 36
42 1 2 0 6 36 37
43 1 2 0 6 37 38
44 1 2 0 6 38 39
45 1 2 0 6 39 6
46 1 2 0 7 3 40
47 1 2 0 7 40 41
48 1 2 0 7 41 42
49 1 2 0 7 42 43
50 1 2 0 7 43 44
51 1 2 0 7 44 6
52 1 2 0 8 5 45
53 1 2 0 8 45 46
54 1 2 0 8 46 47
55 1 2 0 8 47 48
56 1 2 0 8 48 7
57 1 2 0 9 7 49
58 1 2 0 9 49 50
59 1 2 0 9 50 51
60 1 2 0 9 51 52
61 1 2 0 9 52 53
62 1 2 0 9 53 54
63 1 2 0 9 54 8
64 1 2 0 10 6 55
65 1 2 0 10 55 56
66 1 2 0 10 56 57
67 1 2 0 10 57 58
68 1 2 0 10 58 8
69 1 2 0 11 7 59
70 1 2 0 11 59 60
71 1 2 0 11 60 61
72 1 2 0 11 61 62
73 1 2 0 11 62 63
74 1 2 0 11 63 1
75 1 2 0 12 8 64
76 1 2 0 12 64 65
77 1 2 0 12 65 66
78 1 2 0 12 66 67
79 1 2 0 12 67 68
80 1 2 0 12 68 4
81 2 2 0 1 81 84 69
82 2 2 0 1 80 81 69
83 2 2 0 1 82 94 86
84 2 2 0 1 84 87 75
85 2 2 0 1 86 96 82
86 2 2 0 1 83 84 81
87 2 2 0 1 83 87 84
88 2 2 0 1 75 95 84
89 2 2 0 1 87 91 75
90 2 2 0 1 86 94 70
91 2 2 0 1 69 93 80
92 2 2 0 1 76 77 72
93 2 2 0 1 20 76 72
94 2 2 0 1 85 97 90
95 2 2 0 1 77 78 72
96 2 2 0 1 77 79 78
97 2 2 0 1 73 85 10
98 2 2 0 1 19 76 20
99 2 2 0 1 20 72 21
100 2 2 0 1 11 73 10
101 2 2 0 1 79 80 78
102 2 2 0 1 78 88 72
103 2 2 0 1 10 85 9
104 2 2 0 1 73 97 85
105 2 2 0 1 79 81 80
106 2 2 0 1 79 82 81
107 2 2 0 1 78 102 88
108 2 2 0 1 16 69 15
109 2 2 0 1 25 86 26
110 2 2 0 1 71 86 25
111 2 2 0 1 26 70 27
112 2 2 0 1 26 86 70
113 2 2 0 1 24 71 25
114 2 2 0 1 82 83 81
115 2 2 0 1 14 75 13
116 2 2 0 1 18 74 17
117 2 2 0 1 84 95 69
118 2 2 0 1 11 91 73
119 2 2 0 1 21 88 22
120 2 2 0 1 73 91 87
121 2 2 0 1 85 90 89
122 2 2 0 1 88 102 74
123 2 2 0 1 23 89 24
124 2 2 0 1 83 96 90
125 2 2 0 1 27 92 28
126 2 2 0 1 72 88 21
127 2 2 0 1 16 93 69
128 2 2 0 1 77 94 79
129 2 2 0 1 89 90 71
130 2 2 0 1 24 89 71
131 2 2 0 1 74 93 17
132 2 2 0 1 70 92 27
133 2 2 0 1 82 96 83
134 2 2 0 1 76 103 77
135 2 2 0 1 12 91 11
136 2 2 0 1 4 98 19
137 2 2 0 1 69 95 15
138 2 2 0 1 17 93 16
139 2 2 0 1 9 99 1
140 2 2 0 1 71 96 86
141 2 2 0 1 28 98 4
142 2 2 0 1 1 99 23
143 2 2 0 1 14 95 75
144 2 2 0 1 22 101 3
145 2 2 0 1 2 100 12
146 2 2 0 1 79 94 82
147 2 2 0 1 13 100 2
148 2 2 0 1 3 101 18
149 2 2 0 1 92 103 76
150 2 2 0 1 88 101 22
151 2 2 0 1 74 101 88
152 2 2 0 1 90 97 83
153 2 2 0 1 85 99 9
154 2 2 0 1 19 98 76
155 2 2 0 1 15 95 14
156 2 2 0 1 77 103 94
157 2 2 0 1 83 97 87
158 2 2 0 1 90 96 71
159 2 2 0 1 80 102 78
160 2 2 0 1 87 97 73
161 2 2 0 1 74 102 93
162 2 2 0 1 91 100 75
163 2 2 0 1 92 98 28
164 2 2 0 1 75 100 13
165 2 2 0 1 18 101 74
166 2 2 0 1 23 99 89
167 2 2 0 1 89 99 85
168 2 2 0 1 76 98 92
169 2 2 0 1 12 100 91
170 2 2 0 1 93 102 80
171 2 2 0 1 70 103 92
172 2 2 0 1 94 103 70
173 2 2 0 2 111 134 121
174 2 2 0 2 104 121 118
175 2 2 0 2 118 122 104
176 2 2 0 2 123 127 105
177 2 2 0 2 130 134 111
178 2 2 0 2 123 138 127
179 2 2 0 2 121 136 111
180 2 2 0 2 104 136 121
181 2 2 0 2 116 122 118
182 2 2 0 2 116 124 122
183 2 2 0 2 108 124 112
184 2 2 0 2 108 112 41
185 2 2 0 2 109 125 32
186 2 2 0 2 112 113 107
187 2 2 0 2 113 114 107
188 2 2 0 2 105 135 123
189 2 2 0 2 113 115 114
190 2 2 0 2 42 112 107
191 2 2 0 2 31 125 106
192 2 2 0 2 115 123 114
193 2 2 0 2 33 109 32
194 2 2 0 2 40 108 41
195 2 2 0 2 120 128 127
196 2 2 0 2 31 106 30
197 2 2 0 2 42 107 43
198 2 2 0 2 113 116 115
199 2 2 0 2 41 112 42
200 2 2 0 2 32 125 31
201 2 2 0 2 112 124 113
202 2 2 0 2 116 118 117
203 2 2 0 2 118 121 119
204 2 2 0 2 116 117 115
205 2 2 0 2 113 124 116
206 2 2 0 2 37 105 36
207 2 2 0 2 15 104 16
208 2 2 0 2 114 129 107
209 2 2 0 2 118 119 117
210 2 2 0 2 36 126 35
211 2 2 0 2 105 126 36
212 2 2 0 2 119 120 117
213 2 2 0 2 13 111 14
214 2 2 0 2 39 110 38
215 2 2 0 2 109 131 128
216 2 2 0 2 114 144 129
217 2 2 0 2 105 127 126
218 2 2 0 2 122 137 104
219 2 2 0 2 127 128 126
220 2 2 0 2 43 129 44
221 2 2 0 2 30 130 29
222 2 2 0 2 129 144 110
223 2 2 0 2 35 131 34
224 2 2 0 2 128 143 109
225 2 2 0 2 128 131 126
226 2 2 0 2 107 129 43
227 2 2 0 2 106 130 30
228 2 2 0 2 37 135 105
229 2 2 0 2 15 136 104
230 2 2 0 2 17 132 18
231 2 2 0 2 126 131 35
232 2 2 0 2 110 135 38
233 2 2 0 2 111 136 14
234 2 2 0 2 104 137 16
235 2 2 0 2 5 139 33
236 2 2 0 2 109 143 125
237 2 2 0 2 125 133 106
238 2 2 0 2 34 139 5
239 2 2 0 2 115 138 123
240 2 2 0 2 119 133 120
241 2 2 0 2 127 138 120
242 2 2 0 2 120 138 117
243 2 2 0 2 121 134 119
244 2 2 0 2 108 145 124
245 2 2 0 2 119 134 133
246 2 2 0 2 29 140 2
247 2 2 0 2 44 141 6
248 2 2 0 2 133 134 106
249 2 2 0 2 106 134 130
250 2 2 0 2 3 142 40
251 2 2 0 2 2 140 13
252 2 2 0 2 6 141 39
253 2 2 0 2 18 142 3
254 2 2 0 2 17 137 132
255 2 2 0 2 38 135 37
256 2 2 0 2 14 136 15
257 2 2 0 2 16 137 17
258 2 2 0 2 132 145 108
259 2 2 0 2 120 143 128
260 2 2 0 2 129 141 44
261 2 2 0 2 130 140 29
262 2 2 0 2 40 142 108
263 2 2 0 2 33 139 109
264 2 2 0 2 110 141 129
265 2 2 0 2 111 140 130
266 2 2 0 2 137 145 132
267 2 2 0 2 117 138 115
268 2 2 0 2 124 145 122
269 2 2 0 2 110 144 135
270 2 2 0 2 131 139 34
271 2 2 0 2 123 144 114
272 2 2 0 2 13 140 111
273 2 2 0 2 39 141 110
274 2 2 0 2 133 143 120
275 2 2 0 2 108 142 132
276 2 2 0 2 109 139 131
277 2 2 0 2 132 142 18
278 2 2 0 2 122 145 137
279 2 2 0 2 135 144 123
280 2 2 0 2 125 143 133
281 2 2 0 3 146 161 158
282 2 2 0 3 146 158 157
283 2 2 0 3 163 171 159
284 2 2 0 3 152 164 161
285 2 2 0 3 158 161 160
286 2 2 0 3 159 173 163
287 2 2 0 3 161 164 160
288 2 2 0 3 161 172 152
289 2 2 0 3 152 167 164
290 2 2 0 3 147 171 163
291 2 2 0 3 157 170 146
292 2 2 0 3 47 162 150
293 2 2 0 3 169 174 162
294 2 2 0 3 149 154 153
295 2 2 0 3 149 155 154
296 2 2 0 3 155 156 154
297 2 2 0 3 149 153 57
298 2 2 0 3 162 174 150
299 2 2 0 3 48 162 47
300 2 2 0 3 56 149 57
301 2 2 0 3 47 150 46
302 2 2 0 3 155 157 156
303 2 2 0 3 149 165 155
304 2 2 0 3 57 153 58
305 2 2 0 3 157 158 156
306 2 2 0 3 165 179 155
307 2 2 0 3 158 159 156
308 2 2 0 3 36 146 37
309 2 2 0 3 51 163 148
310 2 2 0 3 53 147 52
311 2 2 0 3 52 163 51
312 2 2 0 3 51 148 50
313 2 2 0 3 147 163 52
314 2 2 0 3 158 160 159
315 2 2 0 3 150 167 46
316 2 2 0 3 146 172 161
317 2 2 0 3 34 152 35
318 2 2 0 3 38 151 39
319 2 2 0 3 55 165 56
320 2 2 0 3 164 167 150
321 2 2 0 3 168 169 162
322 2 2 0 3 151 179 165
323 2 2 0 3 54 166 53
324 2 2 0 3 50 168 49
325 2 2 0 3 169 173 160
326 2 2 0 3 56 165 149
327 2 2 0 3 146 170 37
328 2 2 0 3 156 171 154
329 2 2 0 3 53 166 147
330 2 2 0 3 148 169 168
331 2 2 0 3 38 170 151
332 2 2 0 3 148 168 50
333 2 2 0 3 160 173 159
334 2 2 0 3 154 180 153
335 2 2 0 3 46 167 45
336 2 2 0 3 7 175 48
337 2 2 0 3 37 170 38
338 2 2 0 3 36 172 146
339 2 2 0 3 58 176 8
340 2 2 0 3 163 173 148
341 2 2 0 3 49 175 7
342 2 2 0 3 8 176 54
343 2 2 0 3 152 172 35
344 2 2 0 3 45 177 5
345 2 2 0 3 6 178 55
346 2 2 0 3 159 171 156
347 2 2 0 3 5 177 34
348 2 2 0 3 39 178 6
349 2 2 0 3 153 180 166
350 2 2 0 3 55 178 165
351 2 2 0 3 165 178 151
352 2 2 0 3 160 174 169
353 2 2 0 3 153 176 58
354 2 2 0 3 48 175 162
355 2 2 0 3 35 172 36
356 2 2 0 3 171 180 154
357 2 2 0 3 148 173 169
358 2 2 0 3 164 174 160
359 2 2 0 3 155 179 157
360 2 2 0 3 152 177 167
361 2 2 0 3 170 179 151
362 2 2 0 3 150 174 164
363 2 2 0 3 168 175 49
364 2 2 0 3 34 177 152
365 2 2 0 3 151 178 39
366 2 2 0 3 54 176 166
367 2 2 0 3 166 176 153
368 2 2 0 3 162 175 168
369 2 2 0 3 167 177 45
370 2 2 0 3 166 180 147
371 2 2 0 3 157 179 170
372 2 2 0 3 147 180 171
373 2 2 0 4 198 211 209
374 2 2 0 4 195 198 181
375 2 2 0 4 24 203 23
376 2 2 0 4 203 216 23
377 2 2 0 4 209 211 185
378 2 2 0 4 181 199 195
379 2 2 0 4 182 206 202
380 2 2 0 4 209 212 198
381 2 2 0 4 182 215 206
382 2 2 0 4 198 212 181
383 2 2 0 4 195 199 192
384 2 2 0 4 192 199 191
385 2 2 0 4 187 207 205
386 2 2 0 4 201 203 202
387 2 2 0 4 189 190 183
388 2 2 0 4 190 201 193
389 2 2 0 4 189 201 190
390 2 2 0 4 185 200 65
391 2 2 0 4 61 189 183
392 2 2 0 4 201 202 193
393 2 2 0 4 190 191 183
394 2 2 0 4 186 203 201
395 2 2 0 4 186 201 189
396 2 2 0 4 190 192 191
397 2 2 0 4 186 189 62
398 2 2 0 4 66 200 184
399 2 2 0 4 63 186 62
400 2 2 0 4 64 185 65
401 2 2 0 4 61 183 60
402 2 2 0 4 66 184 67
403 2 2 0 4 190 193 192
404 2 2 0 4 65 200 66
405 2 2 0 4 62 189 61
406 2 2 0 4 194 195 192
407 2 2 0 4 202 206 193
408 2 2 0 4 196 198 195
409 2 2 0 4 191 208 183
410 2 2 0 4 193 194 192
411 2 2 0 4 194 196 195
412 2 2 0 4 26 182 25
413 2 2 0 4 51 181 52
414 2 2 0 4 27 204 26
415 2 2 0 4 26 204 182
416 2 2 0 4 194 197 196
417 2 2 0 4 49 188 50
418 2 2 0 4 28 187 27
419 2 2 0 4 193 206 194
420 2 2 0 4 194 206 197
421 2 2 0 4 187 204 27
422 2 2 0 4 187 205 204
423 2 2 0 4 191 221 208
424 2 2 0 4 67 207 68
425 2 2 0 4 60 208 59
426 2 2 0 4 207 220 205
427 2 2 0 4 181 213 199
428 2 2 0 4 24 214 203
429 2 2 0 4 23 216 1
430 2 2 0 4 1 216 63
431 2 2 0 4 208 221 188
432 2 2 0 4 184 207 67
433 2 2 0 4 183 208 60
434 2 2 0 4 185 211 200
435 2 2 0 4 186 216 203
436 2 2 0 4 181 212 52
437 2 2 0 4 53 209 54
438 2 2 0 4 51 213 181
439 2 2 0 4 197 215 205
440 2 2 0 4 202 214 182
441 2 2 0 4 200 210 184
442 2 2 0 4 188 213 50
443 2 2 0 4 197 210 196
444 2 2 0 4 206 215 197
445 2 2 0 4 196 211 198
446 2 2 0 4 200 211 210
447 2 2 0 4 204 215 182
448 2 2 0 4 59 217 7
449 2 2 0 4 68 218 4
450 2 2 0 4 210 211 196
451 2 2 0 4 25 214 24
452 2 2 0 4 53 212 209
453 2 2 0 4 8 219 64
454 2 2 0 4 7 217 49
455 2 2 0 4 4 218 28
456 2 2 0 4 54 219 8
457 2 2 0 4 52 212 53
458 2 2 0 4 184 220 207
459 2 2 0 4 203 214 202
460 2 2 0 4 50 213 51
461 2 2 0 4 182 214 25
462 2 2 0 4 205 220 197
463 2 2 0 4 207 218 68
464 2 2 0 4 208 217 59
465 2 2 0 4 199 221 191
466 2 2 0 4 64 219 185
467 2 2 0 4 63 216 186
468 2 2 0 4 187 218 207
469 2 2 0 4 188 217 208
470 2 2 0 4 188 221 213
471 2 2 0 4 205 215 204
472 2 2 0 4 49 217 188
473 2 2 0 4 28 218 187
474 2 2 0 4 197 220 210
475 2 2 0 4 185 219 209
476 2 2 0 4 209 219 54
477 2 2 0 4 213 221 199
478 2 2 0 4 210 220 184
479 2 2 0 5 238 243 236
480 2 2 0 5 234 243 237
481 2 2 0 5 237 243 223
482 2 2 0 5 223 243 238
483 2 2 0 5 236 244 241
484 2 2 0 5 232 239 230
485 2 2 0 5 229 240 228
486 2 2 0 5 239 249 230
487 2 2 0 5 229 250 240
488 2 2 0 5 227 238 236
489 2 2 0 5 234 237 226
490 2 2 0 5 58 232 57
491 2 2 0 5 222 229 228
492 2 2 0 5 222 230 229
493 2 2 0 5 222 228 56
494 2 2 0 5 57 222 56
495 2 2 0 5 57 232 222
496 2 2 0 5 56 228 55
497 2 2 0 5 230 231 229
498 2 2 0 5 241 244 231
499 2 2 0 5 21 223 20
500 2 2 0 5 222 232 230
501 2 2 0 5 66 225 65
502 2 2 0 5 67 235 66
503 2 2 0 5 43 224 42
504 2 2 0 5 42 233 41
505 2 2 0 5 68 227 67
506 2 2 0 5 41 226 40
507 2 2 0 5 66 235 225
508 2 2 0 5 224 233 42
509 2 2 0 5 227 235 67
510 2 2 0 5 41 233 226
511 2 2 0 5 227 236 235
512 2 2 0 5 233 234 226
513 2 2 0 5 20 238 19
514 2 2 0 5 22 237 21
515 2 2 0 5 65 239 64
516 2 2 0 5 44 240 43
517 2 2 0 5 243 244 236
518 2 2 0 5 236 241 235
519 2 2 0 5 233 242 234
520 2 2 0 5 55 246 6
521 2 2 0 5 21 237 223
522 2 2 0 5 223 238 20
523 2 2 0 5 225 239 65
524 2 2 0 5 6 246 44
525 2 2 0 5 8 245 58
526 2 2 0 5 64 245 8
527 2 2 0 5 43 240 224
528 2 2 0 5 235 241 225
529 2 2 0 5 224 242 233
530 2 2 0 5 3 247 22
531 2 2 0 5 19 248 4
532 2 2 0 5 40 247 3
533 2 2 0 5 4 248 68
534 2 2 0 5 230 249 231
535 2 2 0 5 231 250 229
536 2 2 0 5 231 249 241
537 2 2 0 5 242 250 231
538 2 2 0 5 225 249 239
539 2 2 0 5 240 250 224
540 2 2 0 5 22 247 237
541 2 2 0 5 238 248 19
542 2 2 0 5 242 244 234
543 2 2 0 5 58 245 232
544 2 2 0 5 228 246 55
545 2 2 0 5 239 245 64
546 2 2 0 5 44 246 240
547 2 2 0 5 68 248 227
548 2 2 0 5 226 247 40
549 2 2 0 5 237 247 226
550 2 2 0 5 227 248 238
551 2 2 0 5 231 244 242
552 2 2 0 5 232 245 239
553 2 2 0 5 240 246 228
554 2 2 0 5 234 244 243
555 2 2 0 5 241 249 225
556 2 2 0 5 224 250 242
557 2 2 0 6 267 265 272
558 2 2 0 6 263 266 272
559 2 2 0 6 266 252 272
560 2 2 0 6 252 267 272
561 2 2 0 6 265 270 273
562 2 2 0 6 261 259 268
563 2 2 0 6 258 257 269
564 2 2 0 6 268 259 278
565 2 2 0 6 258 269 279
566 2 2 0 6 256 265 267
567 2 2 0 6 263 255 266
568 2 2 0 6 12 11 261
569 2 2 0 6 251 257 258
570 2 2 0 6 251 258 259
571 2 2 0 6 251 10 257
572 2 2 0 6 11 10 251
573 2 2 0 6 11 251 261
574 2 2 0 6 10 9 257
575 2 2 0 6 259 258 260
576 2 2 0 6 270 260 273
577 2 2 0 6 47 46 252
578 2 2 0 6 251 259 261
579 2 2 0 6 31 30 254
580 2 2 0 6 32 31 264
581 2 2 0 6 62 61 253
582 2 2 0 6 61 60 262
583 2 2 0 6 33 32 256
584 2 2 0 6 60 59 255
585 2 2 0 6 31 254 264
586 2 2 0 6 253 61 262
587 2 2 0 6 256 32 264
588 2 2 0 6 60 255 262
589 2 2 0 6 256 264 265
590 2 2 0 6 262 255 263
591 2 2 0 6 46 45 267
592 2 2 0 6 48 47 266
593 2 2 0 6 30 29 268
594 2 2 0 6 63 62 269
595 2 2 0 6 272 265 273
596 2 2 0 6 265 264 270
597 2 2 0 6 262 263 271
598 2 2 0 6 9 1 275
599 2 2 0 6 47 252 266
600 2 2 0 6 252 46 267
601 2 2 0 6 254 30 268
602 2 2 0 6 1 63 275
603 2 2 0 6 2 12 274
604 2 2 0 6 29 2 274
605 2 2 0 6 62 253 269
606 2 2 0 6 264 254 270
607 2 2 0 6 253 262 271
608 2 2 0 6 7 48 276
609 2 2 0 6 45 5 277
610 2 2 0 6 59 7 276
611 2 2 0 6 5 33 277
612 2 2 0 6 259 260 278
613 2 2 0 6 260 258 279
614 2 2 0 6 260 270 278
615 2 2 0 6 271 260 279
616 2 2 0 6 254 268 278
617 2 2 0 6 269 253 279
618 2 2 0 6 48 266 276
619 2 2 0 6 267 45 277
620 2 2 0 6 271 263 273
621 2 2 0 6 12 261 274
622 2 2 0 6 257 9 275
623 2 2 0 6 268 29 274
624 2 2 0 6 63 269 275
625 2 2 0 6 33 256 277
626 2 2 0 6 255 59 276
627 2 2 0 6 266 255 276
628 2 2 0 6 256 267 277
629 2 2 0 6 260 271 273
630 2 2 0 6 261 268 274
631 2 2 0 6 269 257 275
632 2 2 0 6 263 272 273
633 2 2 0 6 270 254 278
634 2 2 0 6 253 271 279
$EndElements
